<svg xmlns="http://www.w3.org/2000/svg" version="1.1" xmlns:xlink="http://www.w3.org/1999/xlink" xmlns:svgjs="http://svgjs.dev/svgjs" width="1000" height="154" viewBox="0 0 1000 154"><g transform="matrix(1,0,0,1,-0.6060445703725463,-0.48794946131157246)"><svg viewBox="0 0 396 61" data-background-color="#ffffff" preserveAspectRatio="xMidYMid meet" height="154" width="1000" xmlns="http://www.w3.org/2000/svg" xmlns:xlink="http://www.w3.org/1999/xlink"><g id="tight-bounds" transform="matrix(1,0,0,1,0.2399936498675288,0.19327868272731052)"><svg viewBox="0 0 395.52 60.61344263454539" height="60.61344263454539" width="395.52"><g><svg viewBox="0 0 504.2371161570745 77.27434140977812" height="60.61344263454539" width="395.52"><g><rect width="5.042460098013116" height="67.0978362458276" x="90.47449873441978" y="5.0882525819752615" fill="#0063db" opacity="1" stroke-width="0" stroke="transparent" fill-opacity="1" class="rect-o-0" data-fill-palette-color="primary" rx="1%" id="o-0" data-palette-color="#0063db"></rect></g><g transform="matrix(1,0,0,1,108.71711615707456,10.679738935794227)"><svg viewBox="0 0 395.52 55.914863538189664" height="55.914863538189664" width="395.52"><g id="textblocktransform"><svg viewBox="0 0 395.52 55.914863538189664" height="55.914863538189664" width="395.52" id="textblock"><g><svg viewBox="0 0 395.52 55.914863538189664" height="55.914863538189664" width="395.52"><g transform="matrix(1,0,0,1,0,0)"><svg width="395.52" viewBox="2.799999952316284 -35.5 254.62998962402344 36" height="55.914863538189664" data-palette-color="#0063db"><path d="M18.45 0.5L18.45 0.5Q13.8 0.5 10.28-0.95 6.75-2.4 4.78-5.48 2.8-8.55 2.8-13.25L2.8-13.25 2.8-33.7Q2.8-34.25 3.2-34.63 3.6-35 4.1-35L4.1-35 12.25-35Q12.8-35 13.18-34.63 13.55-34.25 13.55-33.7L13.55-33.7 13.55-13.4Q13.55-10.85 14.8-9.55 16.05-8.25 18.4-8.25L18.4-8.25Q20.75-8.25 21.98-9.55 23.2-10.85 23.2-13.4L23.2-13.4 23.2-33.7Q23.2-34.25 23.6-34.63 24-35 24.55-35L24.55-35 32.65-35Q33.2-35 33.58-34.63 33.95-34.25 33.95-33.7L33.95-33.7 33.95-13.25Q33.95-8.55 32-5.48 30.05-2.4 26.55-0.95 23.05 0.5 18.45 0.5ZM49.35 0L41.2 0Q40.7 0 40.3-0.38 39.9-0.75 39.9-1.3L39.9-1.3 39.9-33.7Q39.9-34.25 40.3-34.63 40.7-35 41.2-35L41.2-35 55.45-35Q62.25-35 66.12-31.9 70-28.8 70-23.25L70-23.25Q70-19.75 68.4-17.3 66.8-14.85 64.2-13.45L64.2-13.45 70.7-1.65Q70.85-1.35 70.85-1.1L70.85-1.1Q70.85-0.65 70.55-0.33 70.25 0 69.8 0L69.8 0 61.35 0Q60.4 0 59.9-0.48 59.4-0.95 59.25-1.35L59.25-1.35 54.25-11.65 50.65-11.65 50.65-1.3Q50.65-0.75 50.27-0.38 49.9 0 49.35 0L49.35 0ZM50.65-26.9L50.65-19.9 55.4-19.9Q57.15-19.9 58-20.88 58.85-21.85 58.85-23.3L58.85-23.3Q58.85-24.8 58.02-25.85 57.2-26.9 55.4-26.9L55.4-26.9 50.65-26.9ZM100.65 0L76.55 0Q76.05 0 75.65-0.38 75.25-0.75 75.25-1.3L75.25-1.3 75.25-33.7Q75.25-34.25 75.65-34.63 76.05-35 76.55-35L76.55-35 84.85-35Q85.4-35 85.8-34.63 86.2-34.25 86.2-33.7L86.2-33.7 86.2-8.9 100.65-8.9Q101.2-8.9 101.6-8.53 102-8.15 102-7.6L102-7.6 102-1.3Q102-0.75 101.6-0.38 101.2 0 100.65 0L100.65 0ZM129.64 0.5L129.64 0.5Q124.39 0.5 120.92-0.98 117.44-2.45 115.72-4.83 113.99-7.2 113.89-9.85L113.89-9.85Q113.89-10.3 114.19-10.6 114.49-10.9 114.94-10.9L114.94-10.9 122.89-10.9Q123.59-10.9 123.99-10.68 124.39-10.45 124.84-10.05L124.84-10.05Q125.29-9.5 125.89-9.03 126.49-8.55 127.44-8.28 128.39-8 129.64-8L129.64-8Q131.94-8 133.19-8.63 134.44-9.25 134.44-10.35L134.44-10.35Q134.44-11.2 133.77-11.75 133.09-12.3 131.49-12.75 129.89-13.2 127.14-13.7L127.14-13.7Q123.29-14.35 120.49-15.63 117.69-16.9 116.22-19.07 114.74-21.25 114.74-24.45L114.74-24.45Q114.74-27.7 116.57-30.2 118.39-32.7 121.67-34.1 124.94-35.5 129.29-35.5L129.29-35.5Q132.89-35.5 135.67-34.55 138.44-33.6 140.34-32.08 142.24-30.55 143.24-28.8 144.24-27.05 144.29-25.45L144.29-25.45Q144.29-25 143.97-24.68 143.64-24.35 143.24-24.35L143.24-24.35 134.89-24.35Q134.29-24.35 133.89-24.55 133.49-24.75 133.09-25.2L133.09-25.2Q132.84-25.9 131.84-26.45 130.84-27 129.29-27L129.29-27Q127.59-27 126.69-26.43 125.79-25.85 125.79-24.75L125.79-24.75Q125.79-24 126.34-23.45 126.89-22.9 128.29-22.48 129.69-22.05 132.19-21.55L132.19-21.55Q136.94-20.85 139.87-19.55 142.79-18.25 144.14-16.15 145.49-14.05 145.49-10.9L145.49-10.9Q145.49-7.35 143.44-4.8 141.39-2.25 137.81-0.88 134.24 0.5 129.64 0.5ZM165.14 0.5L165.14 0.5Q160.49 0.5 156.96-0.95 153.44-2.4 151.46-5.48 149.49-8.55 149.49-13.25L149.49-13.25 149.49-33.7Q149.49-34.25 149.89-34.63 150.29-35 150.79-35L150.79-35 158.94-35Q159.49-35 159.86-34.63 160.24-34.25 160.24-33.7L160.24-33.7 160.24-13.4Q160.24-10.85 161.49-9.55 162.74-8.25 165.09-8.25L165.09-8.25Q167.44-8.25 168.66-9.55 169.89-10.85 169.89-13.4L169.89-13.4 169.89-33.7Q169.89-34.25 170.29-34.63 170.69-35 171.24-35L171.24-35 179.34-35Q179.89-35 180.26-34.63 180.64-34.25 180.64-33.7L180.64-33.7 180.64-13.25Q180.64-8.55 178.69-5.48 176.74-2.4 173.24-0.95 169.74 0.5 165.14 0.5ZM195.44 0L187.94 0Q187.39 0 186.99-0.38 186.59-0.75 186.59-1.3L186.59-1.3 186.59-33.7Q186.59-34.25 186.99-34.63 187.39-35 187.94-35L187.94-35 194.59-35Q195.49-35 195.94-34.5 196.39-34 196.54-33.8L196.54-33.8 204.54-19.9 212.54-33.8Q212.69-34 213.14-34.5 213.59-35 214.49-35L214.49-35 221.14-35Q221.69-35 222.06-34.63 222.44-34.25 222.44-33.7L222.44-33.7 222.44-1.3Q222.44-0.75 222.06-0.38 221.69 0 221.14 0L221.14 0 213.64 0Q213.09 0 212.71-0.38 212.34-0.75 212.34-1.3L212.34-1.3 212.34-17.5 207.84-9.6Q207.59-9.2 207.19-8.8 206.79-8.4 206.04-8.4L206.04-8.4 202.99-8.4Q202.29-8.4 201.89-8.8 201.49-9.2 201.24-9.6L201.24-9.6 196.74-17.5 196.74-1.3Q196.74-0.75 196.36-0.38 195.99 0 195.44 0L195.44 0ZM256.13 0L228.68 0Q228.18 0 227.78-0.38 227.38-0.75 227.38-1.3L227.38-1.3 227.38-7.35Q227.38-8.05 227.68-8.5 227.98-8.95 228.13-9.15L228.13-9.15 243.23-26.2 229.18-26.2Q228.63-26.2 228.26-26.58 227.88-26.95 227.88-27.5L227.88-27.5 227.88-33.7Q227.88-34.25 228.26-34.63 228.63-35 229.18-35L229.18-35 255.48-35Q256.03-35 256.43-34.63 256.83-34.25 256.83-33.7L256.83-33.7 256.83-27.75Q256.83-27.2 256.63-26.78 256.43-26.35 256.18-26.05L256.18-26.05 241.73-8.9 256.13-8.9Q256.68-8.9 257.06-8.53 257.43-8.15 257.43-7.6L257.43-7.6 257.43-1.3Q257.43-0.75 257.06-0.38 256.68 0 256.13 0L256.13 0Z" opacity="1" transform="matrix(1,0,0,1,0,0)" fill="#0063db" class="undefined-text-0" data-fill-palette-color="primary" id="text-0"></path></svg></g></svg></g></svg></g></svg></g><g><svg viewBox="0 0 77.27434140977812 77.27434140977812" height="77.27434140977812" width="77.27434140977812"><g><svg xmlns="http://www.w3.org/2000/svg" xmlns:xlink="http://www.w3.org/1999/xlink" version="1.1" x="0" y="0" viewBox="0 0 16 16" style="enable-background:new 0 0 16 16;" xml:space="preserve" height="77.27434140977812" width="77.27434140977812" class="icon-icon-0" data-fill-palette-color="accent" id="icon-0"><g fill="#ff5e5e" data-fill-palette-color="accent"><g fill="#ff5e5e" data-fill-palette-color="accent"><path d="M16 6h-1.294C14.034 3.743 12.257 1.966 10 1.294V0H6v1.294C3.743 1.966 1.966 3.743 1.294 6H0v4h1.294c0.672 2.257 2.45 4.034 4.706 4.706V16h4v-1.294c2.257-0.672 4.034-2.45 4.706-4.706H16V6zM10 12.576V12H6v0.576C4.851 12.072 3.928 11.149 3.424 10H4V6H3.424C3.928 4.851 4.851 3.928 6 3.424V4h4V3.424C11.149 3.928 12.072 4.851 12.576 6H12v4h0.576C12.072 11.149 11.149 12.072 10 12.576z" fill="#ff5e5e" data-fill-palette-color="accent"></path></g></g></svg></g></svg></g></svg></g><defs></defs></svg><rect width="395.52" height="60.61344263454539" fill="none" stroke="none" visibility="hidden"></rect></g></svg></g></svg>